<?xml version="1.0" standalone="no"?>
<!DOCTYPE svg PUBLIC "-//W3C//DTD SVG 20010904//EN"
 "http://www.w3.org/TR/2001/REC-SVG-20010904/DTD/svg10.dtd">
<svg version="1.0" xmlns="http://www.w3.org/2000/svg"
 width="300.000000pt" height="199.000000pt" viewBox="0 0 300.000000 199.000000"
 preserveAspectRatio="xMidYMid meet">
<metadata>
Created by potrace 1.10, written by Peter Selinger 2001-2011
</metadata>
<g transform="translate(0.000000,199.000000) scale(0.100000,-0.100000)"
fill="#a63abb" stroke="none">
<path d="M750 1729 c-11 -8 -8 -9 15 -4 25 4 57 -10 184 -80 151 -83 225 -109
266 -95 12 4 -3 9 -41 12 -43 4 -79 16 -120 39 -32 18 -77 43 -99 55 -79 45
-162 84 -176 84 -8 0 -21 -5 -29 -11z"/>
<path d="M690 1671 c0 -23 144 -118 155 -102 3 6 -16 21 -43 35 -27 14 -63 37
-81 51 -17 15 -31 22 -31 16z"/>
<path d="M905 1587 c42 -29 159 -87 135 -68 -14 11 -28 21 -32 21 -4 0 -30 14
-58 30 -51 30 -81 41 -45 17z"/>
<path d="M847 1528 c4 -20 0 -27 -14 -31 -14 -4 -12 -5 6 -6 14 0 33 -9 44
-18 19 -18 19 -18 4 12 -8 17 -22 39 -30 50 -14 19 -15 19 -10 -7z"/>
<path d="M1256 1540 c12 -5 55 -11 95 -14 56 -4 63 -3 29 3 -81 15 -147 21
-124 11z"/>
<path d="M1500 1500 c35 -11 60 -12 60 -1 0 5 -19 9 -42 9 -35 -1 -39 -2 -18
-8z"/>
<path d="M1410 1462 c-14 -2 -29 -8 -35 -13 -9 -9 54 -1 64 7 8 7 -4 10 -29 6z"/>
<path d="M795 1450 c-7 -12 2 -30 16 -30 12 0 12 27 0 35 -5 3 -12 1 -16 -5z"/>
<path d="M1325 1452 c-18 -6 -15 -10 21 -27 l41 -21 -20 28 c-11 15 -21 28
-21 27 -1 -1 -10 -4 -21 -7z"/>
<path d="M900 1433 c0 -12 9 -27 20 -33 25 -13 25 -2 0 30 -19 25 -20 25 -20
3z"/>
<path d="M1592 1405 c-53 -22 -83 -42 -47 -32 58 17 75 19 75 8 0 -16 -79 -51
-97 -44 -8 3 -12 12 -9 19 3 8 0 14 -8 14 -25 0 -22 -11 16 -51 41 -43 44 -58
9 -39 -35 18 -23 2 17 -24 50 -33 79 -40 79 -22 0 9 -4 13 -8 11 -13 -9 -38 6
-33 20 3 7 -4 16 -15 20 -30 9 -26 20 17 46 20 12 47 31 59 42 14 13 31 18 47
15 36 -7 32 -2 -11 20 -37 18 -39 18 -91 -3z"/>
<path d="M1127 1393 c-3 -10 -15 -33 -27 -50 -12 -18 -18 -33 -13 -33 5 0 17
15 26 34 l16 34 48 -15 c26 -8 68 -22 93 -30 25 -8 72 -23 105 -32 l60 -18 3
-76 c2 -43 7 -77 12 -77 5 0 8 42 7 94 -1 52 -5 92 -8 90 -3 -2 -25 4 -48 13
-27 11 -41 22 -41 35 0 17 -20 27 -20 11 0 -5 -7 -16 -14 -26 -13 -17 -17 -16
-66 13 -28 17 -49 26 -45 20 11 -19 -35 -10 -55 10 -24 24 -26 25 -33 3z"/>
<path d="M820 1375 c0 -20 17 -28 23 -11 3 8 -1 17 -9 20 -8 3 -14 -1 -14 -9z"/>
<path d="M643 1310 c0 -36 2 -50 4 -32 2 17 2 47 0 65 -2 17 -4 3 -4 -33z"/>
<path d="M932 1345 c-17 -36 -15 -42 12 -47 40 -8 49 5 29 40 -22 39 -26 39
-41 7z"/>
<path d="M675 1259 c3 -50 7 -95 10 -100 11 -18 25 -9 25 16 0 14 -5 25 -11
25 -6 0 -9 27 -7 75 3 55 1 75 -8 75 -10 0 -12 -23 -9 -91z"/>
<path d="M1019 1284 c-11 -14 -10 -15 11 -12 13 1 25 9 28 16 5 17 -23 15 -39
-4z"/>
<path d="M1615 1290 c-4 -6 6 -7 27 -3 44 8 48 13 10 13 -17 0 -34 -4 -37 -10z"/>
<path d="M862 1130 c-1 -41 2 -70 8 -70 9 0 11 19 14 112 1 12 -4 23 -9 25 -7
2 -11 -24 -13 -67z"/>
<path d="M1293 1120 c0 -36 2 -50 4 -32 2 17 2 47 0 65 -2 17 -4 3 -4 -33z"/>
<path d="M1065 1100 c0 -31 3 -40 16 -40 25 0 31 58 8 71 -25 13 -24 13 -24
-31z"/>
<path d="M462 1096 c-65 -74 -68 -175 -9 -298 51 -103 167 -289 177 -283 14 8
121 201 151 271 44 100 53 164 35 228 -9 30 -21 58 -26 61 -15 9 -12 -26 4
-44 10 -12 11 -30 6 -66 -4 -27 -8 -40 -9 -27 -1 28 -21 29 -21 0 0 -12 -11
-41 -25 -65 -25 -42 -18 -63 7 -23 7 11 16 20 20 20 16 0 7 -37 -17 -70 -13
-18 -22 -37 -19 -42 3 -5 0 -17 -8 -26 -8 -9 -28 -44 -44 -77 -35 -72 -51 -87
-76 -71 -10 6 -18 14 -18 18 0 4 -16 32 -35 62 -19 30 -35 59 -35 65 0 5 -3
11 -7 13 -26 11 -95 207 -88 246 2 9 4 23 4 30 1 7 19 32 41 56 22 24 40 46
40 50 0 15 -20 3 -48 -28z"/>
<path d="M1168 1123 c23 -2 59 -2 80 0 20 2 1 4 -43 4 -44 0 -61 -2 -37 -4z"/>
<path d="M1583 1123 l-223 -3 0 -66 c0 -52 -3 -66 -17 -72 -24 -9 -25 -62 -2
-62 18 0 29 53 29 136 l0 44 220 0 220 0 -3 -260 c-2 -143 -8 -261 -13 -263
-5 -1 -12 69 -15 155 -4 86 -10 161 -14 167 -9 15 -35 14 -35 -2 0 -7 4 -17 9
-22 10 -11 20 -185 10 -185 -7 0 16 -113 25 -129 5 -7 -3 -11 -21 -11 l-28 -1
23 -18 c12 -11 22 -26 22 -35 0 -26 21 -30 145 -29 66 0 112 -2 102 -4 -10 -3
-16 -10 -14 -17 4 -10 -23 -13 -119 -12 l-124 1 0 25 c0 32 -26 70 -47 70 -9
0 -28 -10 -42 -22 l-25 -23 19 30 18 30 -21 -19 c-12 -11 -22 -24 -22 -30 0
-7 -9 -29 -19 -50 -11 -21 -18 -43 -15 -50 7 -18 -85 -4 -96 14 -5 9 -21 11
-51 6 -24 -3 -66 -2 -94 3 -27 5 -39 9 -26 10 16 1 21 5 17 16 -10 26 58 20
77 -7 13 -19 16 -20 16 -5 1 22 61 25 61 2 0 -21 17 -19 30 5 8 14 21 20 45
20 19 0 35 4 35 9 0 5 -39 7 -92 4 -56 -3 -145 2 -223 11 -172 21 -663 27
-670 8 -4 -10 49 -12 261 -12 146 1 269 -2 272 -5 4 -3 0 -10 -7 -14 -20 -13
16 -30 76 -37 26 -3 57 -9 68 -14 11 -5 27 -11 35 -13 8 -3 -12 -6 -45 -7 -33
-1 -82 -5 -110 -9 l-50 -7 80 -12 c132 -19 245 -26 245 -14 0 6 44 10 113 11
75 1 170 12 287 33 96 17 200 34 230 38 168 24 273 40 277 43 2 3 -14 7 -37
11 -26 4 -40 11 -40 21 0 11 7 14 25 9 21 -5 25 -3 25 15 0 15 -6 21 -24 21
-13 0 -26 7 -30 15 -4 11 2 15 20 15 14 0 22 4 19 10 -3 5 1 22 9 38 11 22 12
32 3 41 -14 14 -2 14 24 1 14 -8 26 -7 46 4 l28 15 -28 1 c-20 0 -33 9 -47 33
-18 29 -20 30 -20 9 0 -13 -4 -20 -10 -17 -16 10 -12 55 4 49 9 -3 16 4 20 21
12 49 90 53 115 6 19 -35 12 -71 -18 -102 -31 -31 -21 -41 11 -12 18 16 18 16
12 -3 -7 -17 -6 -17 9 -5 21 16 21 10 3 -34 -8 -18 -12 -36 -8 -39 3 -3 0 -6
-6 -6 -6 0 -19 -15 -28 -32 -15 -30 -31 -48 -44 -48 -3 0 -16 19 -29 42 -13
24 -26 38 -28 31 -4 -12 52 -143 61 -143 9 0 116 187 131 231 36 102 5 192
-78 222 -24 9 -13 -8 29 -46 35 -30 55 -90 37 -108 -7 -7 -13 1 -17 25 -8 44
-47 92 -82 100 -40 10 -93 -12 -115 -48 -10 -17 -19 -26 -19 -19 0 19 47 69
82 86 28 14 29 17 11 17 -12 0 -38 -14 -57 -30 -57 -50 -65 -145 -20 -232 l15
-29 -62 7 c-36 4 -60 3 -57 -2 3 -5 -28 -10 -71 -11 -117 -3 -292 -29 -302
-44 -4 -7 -7 -14 -6 -15 2 -2 145 17 240 31 20 3 37 1 37 -3 0 -5 -53 -15
-117 -23 -92 -11 -109 -15 -78 -19 22 -3 77 -1 122 4 68 8 82 12 86 28 4 15
13 19 34 16 27 -3 28 -5 28 -58 0 -54 0 -55 -29 -55 -25 0 -31 5 -38 31 -7 27
-11 30 -42 26 -23 -3 -36 -10 -39 -23 -6 -21 -37 -26 -37 -6 0 10 -16 12 -77
5 -43 -4 -88 -10 -99 -13 -36 -8 -49 49 -14 58 19 5 20 14 20 296 0 160 -3
290 -7 289 -5 -2 -108 -4 -230 -5z m687 -559 c19 -49 -14 -110 -45 -84 -15 13
-21 90 -8 103 15 16 44 6 53 -19z m-546 -86 c16 -70 9 -88 -35 -88 -24 0 -29
4 -29 25 0 14 -4 25 -10 25 -5 0 -10 5 -10 11 0 5 5 7 10 4 6 -3 14 5 20 19
12 33 48 35 54 4z m-406 -8 c14 0 22 -6 22 -16 0 -14 -7 -15 -37 -10 -21 3
-48 6 -60 6 -15 0 -23 6 -23 16 0 14 7 15 38 10 20 -3 47 -6 60 -6z m517 -65
c-44 -8 -81 -12 -84 -10 -9 10 57 21 129 22 19 1 -1 -5 -45 -12z"/>
<path d="M569 1108 c-20 -5 -50 -23 -65 -40 l-29 -30 38 25 c93 63 185 35 220
-68 l14 -39 7 28 c19 76 -90 150 -185 124z"/>
<path d="M1842 1108 c-9 -3 114 -7 275 -7 160 -1 300 -4 310 -8 16 -6 16 -5 4
11 -13 16 -38 17 -293 14 -153 -1 -286 -6 -296 -10z"/>
<path d="M565 1076 c-88 -39 -106 -150 -34 -210 36 -31 96 -35 135 -10 28 19
53 57 31 49 -9 -4 -12 8 -11 50 0 31 -3 58 -8 61 -6 4 -8 -22 -6 -65 3 -68 2
-71 -23 -81 -36 -15 -74 -3 -104 32 -33 39 -32 80 3 119 34 38 89 42 132 10
l28 -20 -14 29 c-8 16 -28 33 -46 39 -39 14 -46 13 -83 -3z"/>
<path d="M918 1069 c-8 -5 10 -9 46 -9 33 0 56 3 52 7 -10 11 -82 12 -98 2z"/>
<path d="M2420 1004 c0 -42 4 -73 9 -70 12 8 13 146 1 146 -6 0 -10 -33 -10
-76z"/>
<path d="M1070 991 c0 -19 20 -22 36 -7 14 15 13 16 -10 16 -14 0 -26 -4 -26
-9z"/>
<path d="M1130 990 c0 -5 7 -10 15 -10 8 0 15 5 15 10 0 6 -7 10 -15 10 -8 0
-15 -4 -15 -10z"/>
<path d="M1221 905 c1 -76 -3 -110 -16 -143 -10 -24 -15 -46 -11 -49 9 -9 330
-23 337 -15 3 4 14 44 24 90 10 45 22 82 26 82 4 0 9 7 13 15 3 9 0 15 -10 15
-9 0 -12 -5 -8 -11 5 -8 -40 -10 -159 -8 -155 4 -167 3 -175 -15 -5 -12 -9 6
-10 55 -2 40 -5 76 -8 78 -3 3 -4 -39 -3 -94z m300 -77 c13 -23 3 -72 -17 -89
-14 -11 -86 -13 -164 -4 -14 1 -35 3 -47 4 -20 1 -23 7 -24 44 l-1 42 -12 -52
c-9 -42 -14 -51 -25 -44 -12 8 -13 16 -3 50 21 69 29 72 164 70 106 -2 120 -4
129 -21z"/>
<path d="M1240 933 c1 -38 3 -44 11 -30 5 9 18 17 27 17 12 0 17 9 18 30 1 27
-2 30 -27 30 -28 0 -29 -2 -29 -47z"/>
<path d="M895 883 c4 -49 8 -89 9 -90 0 -1 17 2 36 6 22 4 30 10 22 14 -6 5
-12 19 -12 32 0 13 -4 26 -9 29 -4 3 -6 -5 -4 -18 3 -13 0 -26 -5 -30 -6 -4
-13 23 -17 69 -4 41 -12 75 -17 75 -7 0 -8 -31 -3 -87z"/>
<path d="M920 910 c0 -23 15 -27 27 -6 4 7 15 16 23 19 8 3 0 6 -17 6 -27 1
-33 -3 -33 -19z"/>
<path d="M1009 921 c7 -5 22 -6 32 -4 17 5 19 -1 19 -50 0 -55 0 -56 -32 -60
-18 -2 -1 -4 37 -4 39 0 55 2 38 4 l-33 4 0 60 0 59 -37 0 c-25 0 -33 -3 -24
-9z"/>
<path d="M1623 873 c9 -2 25 -2 35 0 9 3 1 5 -18 5 -19 0 -27 -2 -17 -5z"/>
<path d="M1711 843 c13 -58 11 -81 -8 -86 -14 -4 -12 -5 5 -6 19 -1 22 4 22
33 0 45 -11 96 -20 96 -4 0 -4 -17 1 -37z"/>
<path d="M1169 846 c-2 -3 -3 -25 -1 -51 5 -59 27 -55 27 5 0 38 -12 60 -26
46z"/>
<path d="M1610 780 c0 -29 5 -50 11 -50 5 0 7 -4 4 -10 -3 -5 -19 -10 -36 -10
-16 0 -29 -4 -29 -10 0 -19 59 -11 72 10 7 11 18 20 25 20 9 0 13 16 13 50 0
49 -1 50 -30 50 -29 0 -30 -1 -30 -50z"/>
<path d="M828 793 c12 -2 32 -2 45 0 12 2 2 4 -23 4 -25 0 -35 -2 -22 -4z"/>
<path d="M2421 756 c-1 -26 2 -37 9 -30 6 6 6 21 1 39 -9 30 -9 30 -10 -9z"/>
<path d="M795 730 c-4 -6 15 -10 49 -10 l56 0 0 -95 0 -95 73 6 c81 8 100 14
40 14 -24 0 -46 6 -53 15 -7 8 -19 15 -27 15 -8 0 -13 7 -11 18 2 9 7 16 11
14 10 -4 31 18 40 41 6 17 37 25 37 9 0 -5 14 -7 31 -4 l31 4 -3 -63 c-2 -45
1 -64 11 -67 9 -3 11 2 7 19 -4 13 -7 48 -7 78 l0 53 -80 -4 -80 -3 0 32 0 33
-59 0 c-33 0 -63 -4 -66 -10z"/>
<path d="M1532 667 c-16 -19 -19 -69 -5 -74 8 -3 12 4 11 19 -1 13 2 33 6 46
8 25 4 28 -12 9z"/>
<path d="M1090 662 c0 -4 17 -6 38 -4 58 5 62 10 10 11 -27 1 -48 -3 -48 -7z"/>
<path d="M1690 660 c0 -13 11 -13 30 0 12 8 11 10 -7 10 -13 0 -23 -4 -23 -10z"/>
<path d="M1168 561 c3 -31 9 -41 27 -45 33 -8 247 -26 318 -26 l57 0 0 46 0
47 -52 -6 c-51 -5 -277 8 -328 18 -24 5 -25 4 -22 -34z m176 -13 c-5 -8 0 -9
14 -6 12 4 22 3 22 -2 0 -4 16 -11 36 -15 59 -11 33 -15 -30 -5 -66 11 -77 17
-56 30 20 13 23 12 14 -2z m212 -16 c1 -25 -2 -27 -31 -24 -27 3 -32 8 -32 28
0 20 4 24 31 24 27 0 31 -4 32 -28z"/>
<path d="M2136 555 c-3 -8 -1 -15 4 -15 6 0 10 5 10 11 0 5 5 7 12 3 7 -4 8
-3 4 4 -10 16 -23 15 -30 -3z"/>
<path d="M720 539 c-20 -4 9 -6 65 -6 98 0 104 3 15 9 -25 2 -61 0 -80 -3z"/>
<path d="M542 413 c37 -2 100 -2 140 0 40 1 10 3 -67 3 -77 0 -110 -1 -73 -3z"/>
<path d="M2255 400 c4 -6 55 -10 122 -10 64 0 114 2 111 5 -10 11 -239 15
-233 5z"/>
</g>
</svg>
